#!OML:ASF Y:\EmotionMaleHayes\Project 1\Capture day 1\Session 1\Male1.ASF
:FULLY-SPECIFIED
:DEGREES
2905
root -29.2778 17.212 10.0646 550.259 378.948 -531.8
lowerback 13.8696 3.67435 -9.56764
upperback 6.06967 4.48042 -2.92026
thorax -1.71372 2.49616 1.59195
lowerneck -20.9362 -0.491075 3.29341
upperneck 36.9325 0.694674 0.0136512
head 16.9588 1.55692 -0.1906
rclavicle -2.3059e-014 -5.08889e-014
rhumerus -41.0631 1.58898 -78.6315
rradius 35.0066
rwrist 5.80689
rhand -6.655 -34.0811
rfingers 7.12502
rthumb 19.2026 -63.1531
lclavicle -2.3059e-014 -5.08889e-014
lhumerus -20.0878 -5.26355 58.9568
lradius 40.1878
lwrist 1.0029
lhand -22.8717 -18.634
lfingers 7.12502
lthumb 3.56704 11.3159
rfemur -5.83701 -9.08842 16.7145
rtibia 18.9895
rfoot -15.9694 -5.53255
rtoes 5.13411
lfemur -11.7343 4.55964 -7.10385
ltibia 21.6531
lfoot -16.8342 16.3464
ltoes -7.20491
2906
root -29.2911 17.2155 9.9889 550.327 379.623 -531.728
lowerback 13.8399 3.39955 -8.72509
upperback 5.99328 4.24371 -3.75066
thorax -1.64748 2.41675 0.300247
lowerneck -20.7367 -0.275464 3.63345
upperneck 36.613 0.4594 0.959241
head 16.7425 1.63701 0.115859
rclavicle 4.29375e-014 3.33958e-014
rhumerus -41.3962 0.210717 -78.8166
rradius 34.4099
rwrist 6.01446
rhand -6.94401 -34.4829
rfingers 7.12502
rthumb 18.9247 -63.5823
lclavicle 4.29375e-014 3.33958e-014
lhumerus -17.8772 -6.31079 57.7925
lradius 40.2657
lwrist 0.921777
lhand -22.7371 -18.5515
lfingers 7.12502
lthumb 3.69695 11.3962
rfemur -6.92066 -8.59412 17.3967
rtibia 19.0023
rfoot -16.0101 -5.41352
rtoes 5.31625
lfemur -11.0894 4.81389 -7.14744
ltibia 21.2317
lfoot -17.1225 16.5447
ltoes -6.40876
2907
root -29.307 17.2242 9.91255 550.181 380.088 -531.889
lowerback 13.889 3.22527 -8.6867
upperback 5.99881 4.03001 -4.05845
thorax -1.62692 2.32433 -0.011035
lowerneck -20.6225 -0.223615 3.60333
upperneck 36.5651 0.37646 1.38845
head 16.6906 1.66088 0.292945
rclavicle -4.29375e-014 -6.36111e-014
rhumerus -41.7734 -0.6151 -78.2538
rradius 34.0428
rwrist 6.01768
rhand -7.25881 -34.1762
rfingers 7.12502
rthumb 18.6219 -63.3049
lclavicle -4.29375e-014 -6.36111e-014
lhumerus -16.3103 -7.81712 57.38
lradius 40.7848
lwrist 1.41814
lhand -22.9206 -18.415
lfingers 7.12502
lthumb 3.51982 11.5357
rfemur -7.67115 -8.33478 17.7845
rtibia 18.7243
rfoot -16.044 -5.29702
rtoes 5.73747
lfemur -10.3864 4.93347 -7.47195
ltibia 20.8194
lfoot -17.3514 16.6471
ltoes -5.89803
2908
root -29.3238 17.2315 9.83731 550.042 380.639 -532.091
lowerback 13.8546 3.15762 -9.07261
upperback 6.02014 3.90039 -4.07635
thorax -1.59329 2.25453 0.206009
lowerneck -20.9405 -0.453559 3.69203
upperneck 37.0279 0.17878 0.912608
head 17.0067 1.53498 0.0375862
rclavicle -6.52014e-014 -5.88403e-014
rhumerus -42.2339 -1.12851 -77.332
rradius 33.9272
rwrist 5.88247
rhand -7.48281 -33.949
rfingers 7.12502
rthumb 18.4064 -63.0982
lclavicle -6.52014e-014 -5.88403e-014
lhumerus -14.7628 -8.73442 57.4228
lradius 41.2346
lwrist 1.6196
lhand -23.2517 -18.0008
lfingers 7.12502
lthumb 3.20001 11.9549
rfemur -8.53332 -8.20145 18.1151
rtibia 18.6048
rfoot -16.1066 -4.92059
rtoes 5.68639
lfemur -9.67214 5.16848 -7.87973
ltibia 20.3694
lfoot -17.4234 16.8395
ltoes -6.24329
2909
root -29.3445 17.2366 9.7604 549.894 381.22 -532.241
lowerback 13.8071 2.88955 -9.41158
upperback 6.08497 3.50891 -3.98074
thorax -1.49095 2.04645 0.561705
lowerneck -21.0642 -0.374162 3.1824
upperneck 37.014 0.454026 0.900173
head 17.0322 1.55239 0.172755
rclavicle -2.38542e-014 -3.18055e-015
rhumerus -42.4604 -0.757566 -76.5454
rradius 33.9819
rwrist 5.33385
rhand -7.58165 -34.0883
rfingers 7.12502
rthumb 18.3113 -63.2464
lclavicle -2.38542e-014 -3.18055e-015
lhumerus -13.4888 -8.79179 57.4895
lradius 41.6088
lwrist 1.63984
lhand -23.5549 -17.6283
lfingers 7.12502
lthumb 2.9072 12.3316
rfemur -9.41216 -8.04764 18.4715
rtibia 18.6624
rfoot -16.3418 -4.23575
rtoes 6.66416
lfemur -8.92986 5.3936 -8.27684
ltibia 19.9657
lfoot -17.4251 17.1003
ltoes -6.85526
2910
root -29.3638 17.2406 9.68194 549.698 381.877 -532.404
lowerback 13.7903 2.8895 -9.5177
upperback 6.11728 3.51543 -4.16184
thorax -1.43877 2.05549 0.430916
lowerneck -21.116 -0.444444 3.383
upperneck 36.9974 0.242837 0.854413
head 17.034 1.48111 0.0718041
rclavicle 7.95139e-015 -4.29375e-014
rhumerus -43.0443 -1.43102 -75.8456
rradius 34.2325
rwrist 4.82849
rhand -7.53958 -34.3857
rfingers 7.12502
rthumb 18.3518 -63.54
lclavicle 7.95139e-015 -4.29375e-014
lhumerus -11.5935 -9.97029 57.2314
lradius 41.9311
lwrist 2.07024
lhand -23.4935 -17.6448
lfingers 7.12502
lthumb 2.96653 12.3144
rfemur -10.239 -8.03973 18.9336
rtibia 18.4955
rfoot -16.0132 -4.21542
rtoes 2.66253
lfemur -8.10856 5.67192 -8.68536
ltibia 19.5268
lfoot -17.9644 17.291
ltoes -5.21489
2911
root -29.375 17.2463 9.598 549.244 382.278 -532.909
lowerback 13.815 2.71909 -10.2163
upperback 6.22387 3.22439 -4.08383
thorax -1.3409 1.89864 0.94485
lowerneck -21.0804 -0.398613 3.159
upperneck 36.9562 0.442624 0.682643
head 17.0046 1.49188 0.070213
rclavicle 1.01778e-013 1.65389e-013
rhumerus -43.2576 -1.15137 -74.9528
rradius 34.3147
rwrist 4.11246
rhand -7.55496 -34.7011
rfingers 7.12502
rthumb 18.337 -63.8568
lclavicle 1.01778e-013 1.65389e-013
lhumerus -10.1487 -10.3622 57.3682
lradius 42.2724
lwrist 2.24991
lhand -23.3355 -17.7703
lfingers 7.12502
lthumb 3.11908 12.1867
rfemur -10.6751 -7.95681 19.0066
rtibia 18.2119
rfoot -15.8831 -4.22272
rtoes 2.94151
lfemur -7.20184 5.76252 -9.41273
ltibia 19.0755
lfoot -18.8058 17.2465
ltoes -2.59163
2912
root -29.3924 17.2432 9.5176 548.919 382.879 -533.418
lowerback 13.7564 2.68687 -10.0923
upperback 6.2323 3.25449 -4.71221
thorax -1.25704 1.94555 0.214866
lowerneck -20.8595 -0.540909 3.68532
upperneck 36.7988 -0.0746838 0.834037
head 16.8607 1.37454 -0.0639051
rclavicle 4.6118e-014 -5.08889e-014
rhumerus -43.8018 -2.27547 -74.6965
rradius 34.3159
rwrist 3.5292
rhand -7.91229 -34.6881
rfingers 7.12502
rthumb 17.9932 -63.8758
lclavicle 4.6118e-014 -5.08889e-014
lhumerus -8.05931 -12.2149 56.4832
lradius 42.678
lwrist 2.63219
lhand -23.548 -17.7564
lfingers 7.12502
lthumb 2.91386 12.2035
rfemur -11.4971 -7.96949 19.0518
rtibia 18.3036
rfoot -15.8308 -3.82388
rtoes 4.55302
lfemur -6.47104 5.83145 -10.2265
ltibia 18.726
lfoot -19.2135 17.4571
ltoes -1.97036
2913
root -29.4074 17.2414 9.43916 548.612 383.43 -533.848
lowerback 13.6806 2.5192 -10.7873
upperback 6.25025 2.94651 -4.52932
thorax -1.20195 1.76936 0.840439
lowerneck -21.0636 -0.270935 3.06333
upperneck 36.7427 0.41739 1.14208
head 16.8892 1.51559 0.278774
rclavicle -4.29375e-014 2.22639e-014
rhumerus -43.9834 -1.61043 -73.8125
rradius 34.4879
rwrist 2.48028
rhand -8.17249 -34.6834
rfingers 7.12502
rthumb 17.7429 -63.894
lclavicle -4.29375e-014 2.22639e-014
lhumerus -6.87573 -12.5296 56.6651
lradius 42.9309
lwrist 2.6458
lhand -23.785 -18.0227
lfingers 7.12502
lthumb 2.68503 11.9402
rfemur -12.3581 -8.00555 19.2174
rtibia 18.3378
rfoot -15.7399 -3.40971
rtoes 6.24459
lfemur -5.74556 5.72844 -10.939
ltibia 18.3817
lfoot -19.4576 17.7384
ltoes -1.52519
2914
root -29.4204 17.2399 9.36271 548.321 384.048 -534.248
lowerback 13.7197 2.51841 -11.0687
upperback 6.11548 2.89872 -4.8211
thorax -1.35282 1.76022 0.686849
lowerneck -20.715 -0.536086 3.14343
upperneck 36.8209 -0.0577457 1.32872
head 16.8398 1.37338 0.253573
rclavicle 6.36111e-015 6.99722e-014
rhumerus -44.6161 -2.07476 -73.4107
rradius 34.6682
rwrist 1.7364
rhand -8.02822 -34.9827
rfingers 7.12502
rthumb 17.8817 -64.1806
lclavicle 6.36111e-015 6.99722e-014
lhumerus -5.28408 -13.8513 56.1356
lradius 43.3047
lwrist 2.76268
lhand -23.8283 -18.0241
lfingers 7.12502
lthumb 2.64315 11.9393
rfemur -13.2532 -8.05436 19.4906
rtibia 18.3992
rfoot -15.5588 -3.09272
rtoes 6.6032
lfemur -5.00055 5.82815 -11.577
ltibia 17.9714
lfoot -19.616 18.0191
ltoes -1.32567
2915
root -29.4351 17.2363 9.27977 547.975 384.307 -534.62
lowerback 13.6798 2.29284 -11.4026
upperback 6.13747 2.58084 -4.93613
thorax -1.27778 1.60173 0.800465
lowerneck -20.4098 -0.621625 3.38022
upperneck 36.7429 -0.197241 1.09614
head 16.7199 1.3095 0.0754235
rclavicle -1.27222e-014 -1.59028e-014
rhumerus -44.9062 -2.12947 -72.9682
rradius 34.9223
rwrist 1.11209
rhand -7.93589 -35.4782
rfingers 7.12502
rthumb 17.9705 -64.668
lclavicle -1.27222e-014 -1.59028e-014
lhumerus -3.87398 -14.603 55.6935
lradius 43.8023
lwrist 2.86357
lhand -23.9091 -17.8892
lfingers 7.12502
lthumb 2.56516 12.0752
rfemur -13.8361 -8.46367 19.8221
rtibia 18.2953
rfoot -15.2747 -2.98178
rtoes 4.76935
lfemur -4.29034 5.87353 -12.1438
ltibia 17.6031
lfoot -19.5122 18.264
ltoes -2.50703
2916
root -29.445 17.2331 9.19442 547.679 384.79 -534.776
lowerback 13.5714 1.85314 -11.8257
upperback 6.24149 1.96226 -4.73006
thorax -1.05974 1.26556 1.35242
lowerneck -20.5899 -0.32178 2.80648
upperneck 36.7477 0.452773 1.0547
head 16.7729 1.46744 0.283435
rclavicle -2.8625e-014 -8.5875e-014
rhumerus -44.4759 -1.08689 -72.4082
rradius 35.0706
rwrist 0.393731
rhand -8.29844 -35.6199
rfingers 7.12502
rthumb 17.6217 -64.8414
lclavicle -2.8625e-014 -8.5875e-014
lhumerus -3.08532 -14.0992 55.5994
lradius 44.2671
lwrist 2.86785
lhand -23.8905 -18.0743
lfingers 7.12502
lthumb 2.58312 11.8898
rfemur -14.5283 -8.86006 20.415
rtibia 18.4661
rfoot -15.6884 -2.73117
rtoes 4.76571
lfemur -3.4598 6.03182 -12.4748
ltibia 17.2421
lfoot -19.7629 18.4514
ltoes -2.33188
2917
root -29.4509 17.231 9.10324 547.333 385.368 -534.882
lowerback 13.4873 1.80942 -11.8257
upperback 6.29372 1.937 -4.87952
thorax -0.948923 1.2553 1.20278
lowerneck -20.5412 -0.421916 2.90929
upperneck 36.7181 0.208066 1.11582
head 16.7436 1.38631 0.241246
rclavicle -1.74931e-014 -4.77083e-014
rhumerus -44.6852 -1.6766 -71.8896
rradius 35.2181
rwrist -0.203302
rhand -8.36058 -35.6286
rfingers 7.12502
rthumb 17.5619 -64.8554
lclavicle -1.74931e-014 -4.77083e-014
lhumerus -1.45327 -15.0321 55.1126
lradius 44.6162
lwrist 2.86826
lhand -23.7771 -18.239
lfingers 7.12502
lthumb 2.69262 11.7237
rfemur -15.1545 -9.3034 21.0856
rtibia 18.691
rfoot -15.8815 -2.53565
rtoes 4.18924
lfemur -2.47753 6.22784 -12.7558
ltibia 16.8516
lfoot -20.1091 18.632
ltoes -1.80503
